<?xml version="1.0" encoding="utf-8"?>
<!-- Generator: Adobe Illustrator 27.9.0, SVG Export Plug-In . SVG Version: 6.00 Build 0)  -->
<svg version="1.1" id="Layer_1" xmlns="http://www.w3.org/2000/svg" xmlns:xlink="http://www.w3.org/1999/xlink" x="0px" y="0px"
	 viewBox="0 0 1920 600" style="enable-background:new 0 0 1920 600;" xml:space="preserve">
<style type="text/css">
	.st0{fill:#1C1B1A;}
	.st1{font-family:'Poppins-Medium';}
	.st2{font-size:434.0784px;}
	.st3{letter-spacing:-30;}
	.st4{letter-spacing:-21;}
	.st5{fill:#13A54A;}
</style>
<g>
	<text transform="matrix(1 0 0 1 0 376.4185)"><tspan x="0" y="0" class="st0 st1 st2 st3">O</tspan><tspan x="309.9" y="0" class="st0 st1 st2 st4">p</tspan><tspan x="582.5" y="0" class="st0 st1 st2 st3">e</tspan><tspan x="820" y="0" class="st0 st1 st2 st4">nG</tspan><tspan x="1393.8" y="0" class="st0 st1 st2 st3">o</tspan><tspan x="1640.4" y="0" class="st0 st1 st2 st4">lf</tspan></text>
	<path class="st5" d="M187.2,552.5c0-5.7,0-11.4,0.6-17.6c0.6-16.2,1.8-32.4,2.4-48.6c0-12.9,3.6-25.3,9.1-37.7
		c3.6-8.6,7.9-16.7,12.1-25.3c2.4-4.3,4.2-9.1,6.7-13.3c2.4-4.8,4.2-10,4.8-15.3v-1l1.2-0.5l0,0c0-2.9-24.8-7.6-55-7.6
		s-55,4.8-55,7.6v0.5v1c0.6,5.2,2.4,10.5,4.8,15.3c2.4,4.3,4.2,9.1,6.7,13.3c4.2,8.6,8.5,16.7,12.1,25.3c5.4,12.4,9.1,24.8,9.1,37.7
		c0.6,16.2,1.8,32.4,2.4,48.6c0,5.7,0,11.4,0.6,17.6"/>
</g>
</svg>
