<?xml version="1.0" encoding="utf-8"?>
<!-- Generator: Adobe Illustrator 27.9.6, SVG Export Plug-In . SVG Version: 9.03 Build 54986)  -->
<svg version="1.1" id="Layer_1" xmlns="http://www.w3.org/2000/svg" xmlns:xlink="http://www.w3.org/1999/xlink" x="0px" y="0px"
	 viewBox="0 0 1200 1200" style="enable-background:new 0 0 1200 1200;" xml:space="preserve">
<style type="text/css">
	.st0{clip-path:url(#SVGID_00000125572001408933241690000009510490354949201324_);}
	.st1{fill:#3D5476;}
	.st2{fill:#69C07A;}
	.st3{fill:#FFFFFF;}
	.st4{fill:#EF4531;}
</style>
<g>
	<defs>
		<circle id="SVGID_1_" cx="600" cy="600" r="600"/>
	</defs>
	<clipPath id="SVGID_00000031184426579295864260000003985572230627769745_">
		<use xlink:href="#SVGID_1_"  style="overflow:visible;"/>
	</clipPath>
	<g style="clip-path:url(#SVGID_00000031184426579295864260000003985572230627769745_);">
		<rect x="-0.3" y="0" class="st1" width="1200.6" height="1200.6"/>
		<path class="st2" d="M-483.6,546.4c0,0,570.9,281.8,1048.4,97C1154.4,415.2,1692,811.7,1692,811.7l36.6,464.8H-501.9L-483.6,546.4
			z"/>
		<g>
			<g>
				<g>
					<path class="st3" d="M548.3,942.4c-8.3,0-15.8-2.7-22.7-8.3c-6.9-5.5-9.6-13.8-8.3-24.8l78.4-737.8c1.4-9.6,4.8-16.3,10.3-20.1
						c5.5-3.8,11.7-5.7,18.6-5.7c8.9,0,16.9,2.9,23.7,8.8c6.9,5.8,9.6,13.6,8.3,23.2l-78.4,737.8c-0.7,8.9-4.1,15.7-10.3,20.1
						C561.7,940.2,555.2,942.4,548.3,942.4z"/>
				</g>
				<path class="st4" d="M673.5,179.2l-20.3,172.6L957.8,280C957.8,280,764.2,257.7,673.5,179.2z"/>
			</g>
		</g>
	</g>
</g>
</svg>
