<?xml version="1.0" encoding="utf-8"?>
<!-- Generator: Adobe Illustrator 27.9.6, SVG Export Plug-In . SVG Version: 9.03 Build 54986)  -->
<svg version="1.1" id="Layer_1" xmlns="http://www.w3.org/2000/svg" xmlns:xlink="http://www.w3.org/1999/xlink" x="0px" y="0px"
	 viewBox="0 0 1800 800" style="enable-background:new 0 0 1800 800;" xml:space="preserve">
<style type="text/css">
	.st0{clip-path:url(#SVGID_00000102524207563454041650000017772441282897372291_);}
	.st1{clip-path:url(#SVGID_00000107552712721729579430000004109494903513714102_);fill:#3D5476;}
	.st2{clip-path:url(#SVGID_00000107552712721729579430000004109494903513714102_);fill:#69C07A;}
	.st3{clip-path:url(#SVGID_00000107552712721729579430000004109494903513714102_);fill:#FFFFFF;}
	.st4{clip-path:url(#SVGID_00000107552712721729579430000004109494903513714102_);fill:#EF4531;}
	.st5{fill:#202226;}
</style>
<g>
	<g>
		<g>
			<defs>
				<rect id="SVGID_1_" x="644.8" y="25.5" width="462.5" height="462.5"/>
			</defs>
			<clipPath id="SVGID_00000066492806072507670200000005644018939464206472_">
				<use xlink:href="#SVGID_1_"  style="overflow:visible;"/>
			</clipPath>
			<g style="clip-path:url(#SVGID_00000066492806072507670200000005644018939464206472_);">
				<defs>
					<circle id="SVGID_00000114064678536270076610000009294677322689335975_" cx="876.1" cy="256.8" r="231.3"/>
				</defs>
				<clipPath id="SVGID_00000165925981968651718060000014213374451826447268_">
					<use xlink:href="#SVGID_00000114064678536270076610000009294677322689335975_"  style="overflow:visible;"/>
				</clipPath>
				
					<rect x="644.7" y="25.5" style="clip-path:url(#SVGID_00000165925981968651718060000014213374451826447268_);fill:#3D5476;" width="462.8" height="462.8"/>
				<path style="clip-path:url(#SVGID_00000165925981968651718060000014213374451826447268_);fill:#69C07A;" d="M458.4,236.1
					c0,0,220,108.6,404.1,37.4c227.2-87.9,434.4,64.9,434.4,64.9l14.1,179.1H451.4L458.4,236.1z"/>
				<path style="clip-path:url(#SVGID_00000165925981968651718060000014213374451826447268_);fill:#FFFFFF;" d="M856.2,388.7
					c-3.2,0-6.1-1.1-8.7-3.2c-2.7-2.1-3.7-5.3-3.2-9.5l30.2-284.4c0.5-3.7,1.9-6.3,4-7.8c2.1-1.5,4.5-2.2,7.2-2.2
					c3.4,0,6.5,1.1,9.1,3.4c2.6,2.3,3.7,5.2,3.2,8.9l-30.2,284.4c-0.3,3.4-1.6,6-4,7.8C861.3,387.9,858.8,388.7,856.2,388.7"/>
				<path style="clip-path:url(#SVGID_00000165925981968651718060000014213374451826447268_);fill:#EF4531;" d="M904.4,94.5
					l-7.8,66.5l117.4-27.7C1014,133.4,939.4,124.8,904.4,94.5"/>
			</g>
		</g>
	</g>
	<g>
		<path class="st5" d="M232.8,620.9c0-46.9,25.9-82.4,77-82.4c51.2,0,72.4,35.5,72.4,79.4c0,51.2-24.6,84-75.9,84
			C254.2,701.8,232.8,668,232.8,620.9z M347.5,619.8c0-36.4-14.2-53-38.4-53c-25.5,0-41.6,16.8-41.6,53.4
			c0,37.7,15.3,53.2,40.1,53.2C331.2,673.4,347.5,658.8,347.5,619.8z"/>
		<path class="st5" d="M397.7,585.5h27.9l2,11.6c9.8-9.8,22.9-14,35.5-14c24.2,0,42.7,14.8,42.7,56.7c0,45.1-21.2,61.9-46.2,61.9
			c-14,0-22.9-4.4-30.1-10.9v54.5h-31.8V585.5z M430.2,667.8c3.3,3.1,11.8,7.6,19.8,7.6c15.3,0,21.4-12.6,21.4-34.7
			c0-22.9-6.8-31.4-20.1-31.4c-7.6,0-16.1,4.6-21.2,8.7V667.8z"/>
		<path class="st5" d="M515.9,642.7c0-41,25.1-59.5,55.6-59.5c34.5,0,48.8,20.9,48.8,52.6c0,3.7-0.2,10.9-0.7,14.8h-69.1
			c0.7,18.8,8.5,25.7,22.9,25.7c11.8,0,16.4-6.5,18.5-16.1l27.7,6.8c-4.1,21.2-21.2,34.9-48.2,34.9
			C529.4,701.8,515.9,673.4,515.9,642.7z M586.3,629.6c0-16.4-5.9-22.7-16.6-22.7c-9.4,0-18.5,6.1-18.8,22.7H586.3z"/>
		<path class="st5" d="M737.9,699.2h-32.9v-72c0-12.2-4.8-17.4-15-17.4c-8.9,0-17.9,5-22.2,8.9v80.5h-32.9V585.5H664l1.7,11.3
			c8.3-7.6,20.7-13.7,36.2-13.7c25.1,0,36,12.4,36,38.4V699.2z"/>
		<path class="st5" d="M900.3,679.8c-6.8,14.2-25.7,22-45.1,22c-47.5,0-66.9-32.9-66.9-78.9c0-51,26.2-84.4,76.5-84.4
			c34.5,0,59.5,15.5,62.4,55.2l-31.4,3.1c-1.7-16.8-8.9-30.5-31.6-30.5c-27.7,0-41,19.8-41,53.6c0,37.5,12.2,55,39.9,55
			c21.2,0,32.3-12.2,32.3-27.5v-5.7h-28.8v-24.6h61.9v82.2H904L900.3,679.8z"/>
		<path class="st5" d="M943.1,642.9c0-36.4,19-59.7,58.4-59.7c39.5,0,54.7,23.8,54.7,57.4c0,37.1-17,61.3-57.8,61.3
			C957.2,701.8,943.1,676.9,943.1,642.9z M1022,641.6c0-24.9-6.8-33.6-21.4-33.6c-14.8,0-23.1,9.4-23.1,34
			c0,25.3,6.3,35.3,22.5,35.3C1014.4,677.4,1022,668.2,1022,641.6z"/>
		<path class="st5" d="M1099.9,699.2h-32.9V534.5h32.9V699.2z"/>
		<path class="st5" d="M1123.4,699.2v-89.6h-15.3v-24h15.3v-13.1c0-28.1,16.8-40.3,41.9-40.3c11.8,0,21.4,2.4,25.1,4.1l-1.3,23.3
			c-4.4-1.5-10-2.8-15.3-2.8c-10.2,0-17.4,3.1-17.4,18.8v10h30.1v24h-30.1v89.6H1123.4z"/>
		<path class="st5" d="M1263.4,581.2c0,14.2,15,18.5,32.3,23.3c22.9,6.3,49.7,14.4,49.7,47.3c0,35.8-29,49.9-60.4,49.9
			c-28.3,0-58.2-9.2-61.1-50.2l30.5-4.6c2.6,15.3,8.3,28.1,31.4,28.1c14,0,26.2-4.8,26.2-19.4c0-13.7-14.8-17.9-31.8-22.2
			c-23.1-6.1-50.4-13.1-50.4-47.5c0-30.7,25.7-47.5,57.6-47.5c28.1,0,53.9,8.7,56.3,46.2l-30.7,3.5c-1.3-14.8-7.4-23.8-25.9-23.8
			C1270.8,564.4,1263.4,571.2,1263.4,581.2z"/>
		<path class="st5" d="M1371.3,570.7c-12.6,0-19.8-7.4-19.8-20.1s7.2-19.8,19.8-19.8c12.4,0,19.8,7.2,19.8,19.8
			S1383.8,570.7,1371.3,570.7z M1387.7,699.2h-32.9V585.5h32.9V699.2z"/>
		<path class="st5" d="M1440,699.2h-32.9V585.5h27.9l1.5,10.7c8.9-7.4,19.8-13.1,34.5-13.1c13.5,0,23.8,3.9,29,14.2
			c8.1-8.3,20.1-14.2,35.3-14.2c22.7,0,34,12.4,34,37.7v78.3h-32.9v-73.1c0-10.7-3.3-16.4-12.9-16.4c-6.1,0-14.6,3.5-18.8,7.9
			c0,0.9,0.2,1.7,0.2,2.8v78.7h-32.9v-73.1c0-10.7-3.3-16.4-12.6-16.4c-6.8,0-15,3.7-19.4,8.1V699.2z"/>
	</g>
</g>
</svg>
