<?xml version="1.0" encoding="utf-8"?>
<!-- Generator: Adobe Illustrator 27.9.6, SVG Export Plug-In . SVG Version: 9.03 Build 54986)  -->
<svg version="1.1" id="Layer_1" xmlns="http://www.w3.org/2000/svg" xmlns:xlink="http://www.w3.org/1999/xlink" x="0px" y="0px"
	 viewBox="0 0 1200 300" style="enable-background:new 0 0 1200 300;" xml:space="preserve">
<style type="text/css">
	.st0{clip-path:url(#SVGID_00000049911240907235526900000007049120861886610311_);}
	.st1{clip-path:url(#SVGID_00000142158640448887534630000005187415028126107303_);fill:#3D5476;}
	.st2{clip-path:url(#SVGID_00000142158640448887534630000005187415028126107303_);fill:#69C07A;}
	.st3{clip-path:url(#SVGID_00000142158640448887534630000005187415028126107303_);fill:#FFFFFF;}
	.st4{clip-path:url(#SVGID_00000142158640448887534630000005187415028126107303_);fill:#EF4531;}
	.st5{fill:#202226;}
</style>
<g>
	<g>
		<g>
			<defs>
				<rect id="SVGID_1_" x="33" y="23.9" width="252.1" height="252.1"/>
			</defs>
			<clipPath id="SVGID_00000039814664881742912720000017166600133355464617_">
				<use xlink:href="#SVGID_1_"  style="overflow:visible;"/>
			</clipPath>
			<g style="clip-path:url(#SVGID_00000039814664881742912720000017166600133355464617_);">
				<defs>
					<circle id="SVGID_00000086671974537475629810000012818843780173175222_" cx="159.1" cy="150" r="126.1"/>
				</defs>
				<clipPath id="SVGID_00000129194997355644727190000000326224439278720959_">
					<use xlink:href="#SVGID_00000086671974537475629810000012818843780173175222_"  style="overflow:visible;"/>
				</clipPath>
				
					<rect x="32.9" y="23.9" style="clip-path:url(#SVGID_00000129194997355644727190000000326224439278720959_);fill:#3D5476;" width="252.3" height="252.3"/>
				<path style="clip-path:url(#SVGID_00000129194997355644727190000000326224439278720959_);fill:#69C07A;" d="M-68.6,138.7
					c0,0,120,59.2,220.3,20.4c123.9-47.9,236.8,35.4,236.8,35.4l7.7,97.7H-72.5L-68.6,138.7z"/>
				<path style="clip-path:url(#SVGID_00000129194997355644727190000000326224439278720959_);fill:#FFFFFF;" d="M148.2,222
					c-1.7,0-3.3-0.6-4.8-1.7c-1.4-1.2-2-2.9-1.7-5.2l16.5-155c0.3-2,1-3.4,2.2-4.2c1.2-0.8,2.5-1.2,3.9-1.2c1.9,0,3.5,0.6,5,1.8
					c1.4,1.2,2,2.9,1.7,4.9l-16.5,155c-0.1,1.9-0.9,3.3-2.2,4.2C151,221.5,149.6,222,148.2,222"/>
				<path style="clip-path:url(#SVGID_00000129194997355644727190000000326224439278720959_);fill:#EF4531;" d="M174.5,61.6
					l-4.3,36.3l64-15.1C234.2,82.8,193.6,78.1,174.5,61.6"/>
			</g>
		</g>
	</g>
	<g>
		<path class="st5" d="M319.6,149.2c0-29.5,16.3-51.8,48.4-51.8c32.2,0,45.5,22.4,45.5,49.9c0,32.2-15.5,52.8-47.7,52.8
			C333,200,319.6,178.8,319.6,149.2z M391.7,148.5c0-22.9-8.9-33.3-24.1-33.3c-16,0-26.2,10.6-26.2,33.6c0,23.7,9.6,33.5,25.2,33.5
			C381.4,182.2,391.7,173,391.7,148.5z"/>
		<path class="st5" d="M423.2,127h17.6l1.2,7.3c6.2-6.2,14.4-8.8,22.4-8.8c15.2,0,26.9,9.3,26.9,35.7c0,28.4-13.3,38.9-29.1,38.9
			c-8.8,0-14.4-2.7-18.9-6.9v34.3h-20V127z M443.7,178.6c2.1,1.9,7.4,4.8,12.5,4.8c9.6,0,13.4-8,13.4-21.8
			c0-14.4-4.3-19.7-12.6-19.7c-4.8,0-10.1,2.9-13.3,5.5V178.6z"/>
		<path class="st5" d="M497.5,162.9c0-25.8,15.8-37.4,35-37.4c21.7,0,30.7,13.2,30.7,33c0,2.3-0.1,6.9-0.4,9.3h-43.5
			c0.4,11.8,5.3,16.2,14.4,16.2c7.4,0,10.3-4.1,11.7-10.1l17.4,4.3c-2.6,13.3-13.3,21.9-30.3,21.9C506,200,497.5,182.2,497.5,162.9z
			 M541.8,154.7c0-10.3-3.7-14.3-10.4-14.3c-5.9,0-11.7,3.8-11.8,14.3H541.8z"/>
		<path class="st5" d="M637.1,198.4h-20.7v-45.2c0-7.7-3-11-9.5-11c-5.6,0-11.2,3.2-14,5.6v50.6h-20.7V127h18.4l1.1,7.1
			c5.2-4.8,13-8.6,22.8-8.6c15.8,0,22.6,7.8,22.6,24.1V198.4z"/>
		<path class="st5" d="M739.3,186.2c-4.3,8.9-16.2,13.8-28.4,13.8c-29.9,0-42.1-20.7-42.1-49.6c0-32.1,16.5-53.1,48.1-53.1
			c21.7,0,37.4,9.7,39.2,34.7l-19.7,1.9c-1.1-10.6-5.6-19.2-19.9-19.2c-17.4,0-25.8,12.5-25.8,33.7c0,23.6,7.7,34.6,25.1,34.6
			c13.3,0,20.3-7.7,20.3-17.3v-3.6H718v-15.5H757v51.7h-15.4L739.3,186.2z"/>
		<path class="st5" d="M766.2,163c0-22.9,11.9-37.6,36.7-37.6c24.8,0,34.4,14.9,34.4,36.1c0,23.3-10.7,38.5-36.3,38.5
			C775.1,200,766.2,184.4,766.2,163z M815.8,162.2c0-15.6-4.3-21.1-13.4-21.1c-9.3,0-14.5,5.9-14.5,21.4c0,15.9,4,22.2,14.1,22.2
			C811,184.7,815.8,178.9,815.8,162.2z"/>
		<path class="st5" d="M864.7,198.4H844V94.9h20.7V198.4z"/>
		<path class="st5" d="M879.6,198.4V142H870V127h9.6v-8.2c0-17.7,10.6-25.4,26.3-25.4c7.4,0,13.4,1.5,15.8,2.6l-0.8,14.7
			c-2.7-1-6.3-1.8-9.6-1.8c-6.4,0-11,1.9-11,11.8v6.3h18.9V142h-18.9v56.4H879.6z"/>
		<path class="st5" d="M967.6,124.2c0,8.9,9.5,11.7,20.3,14.7c14.4,4,31.3,9.1,31.3,29.8c0,22.5-18.2,31.4-38,31.4
			c-17.8,0-36.6-5.8-38.4-31.5l19.2-2.9c1.6,9.6,5.2,17.7,19.7,17.7c8.8,0,16.5-3,16.5-12.2c0-8.6-9.3-11.2-20-14
			c-14.5-3.8-31.7-8.2-31.7-29.9c0-19.3,16.2-29.9,36.2-29.9c17.7,0,33.9,5.5,35.4,29.1l-19.3,2.2c-0.8-9.3-4.7-14.9-16.3-14.9
			C972.2,113.7,967.6,117.9,967.6,124.2z"/>
		<path class="st5" d="M1035.5,117.6c-8,0-12.5-4.7-12.5-12.6s4.5-12.5,12.5-12.5c7.8,0,12.5,4.5,12.5,12.5
			S1043.3,117.6,1035.5,117.6z M1045.7,198.4H1025V127h20.7V198.4z"/>
		<path class="st5" d="M1078.7,198.4h-20.7V127h17.6l1,6.7c5.6-4.7,12.5-8.2,21.7-8.2c8.5,0,14.9,2.5,18.2,8.9
			c5.1-5.2,12.6-8.9,22.2-8.9c14.3,0,21.4,7.8,21.4,23.7v49.2h-20.7v-45.9c0-6.7-2.1-10.3-8.1-10.3c-3.8,0-9.2,2.2-11.8,4.9
			c0,0.5,0.1,1.1,0.1,1.8v49.5h-20.7v-45.9c0-6.7-2.1-10.3-8-10.3c-4.3,0-9.5,2.3-12.2,5.1V198.4z"/>
	</g>
</g>
</svg>
